<?xml version="1.0" encoding="UTF-8"?>
<svg xmlns="http://www.w3.org/2000/svg" xmlns:xlink="http://www.w3.org/1999/xlink" viewBox="0 0 96 96" width="96px" height="96px">
<g id="surface152389287">
<path style=" stroke:none;fill-rule:nonzero;fill:rgb(43.921569%,34.901962%,12.54902%);fill-opacity:1;" d="M 48 8 C 25.945312 8 8 25.945312 8 48 C 8 70.054688 25.945312 88 48 88 C 70.054688 88 88 70.054688 88 48 C 88 25.945312 70.054688 8 48 8 Z M 51 67 C 51 68.65625 49.65625 70 48 70 C 46.34375 70 45 68.65625 45 67 L 45 45 C 45 43.34375 46.34375 42 48 42 C 49.65625 42 51 43.34375 51 45 Z M 48 36 C 45.789062 36 44 34.210938 44 32 C 44 29.789062 45.789062 28 48 28 C 50.210938 28 52 29.789062 52 32 C 52 34.210938 50.210938 36 48 36 Z M 48 36 "/>
</g>
</svg>
