<?xml version="1.0" encoding="UTF-8"?>
<svg xmlns="http://www.w3.org/2000/svg" xmlns:xlink="http://www.w3.org/1999/xlink" viewBox="0 0 96 96" width="96px" height="96px">
<g id="surface152445003">
<path style=" stroke:none;fill-rule:nonzero;fill:rgb(90.196079%,49.411765%,13.333334%);fill-opacity:1;" d="M 31 10 C 23.832031 10 18 15.832031 18 23 L 18 66 L 53 66 C 57.960938 66 62 70.039062 62 75 L 62 80 C 62 83.300781 64.675781 85.980469 67.972656 85.996094 L 68.027344 85.996094 C 71.308594 85.980469 73.972656 83.320312 73.996094 80.039062 C 74 78.980469 74 16 74 16 C 74 13.738281 74.78125 11.675781 76.050781 10 Z M 84 10 C 80.691406 10 78 12.691406 78 16 L 78 28 L 85 28 C 87.757812 28 90 25.757812 90 23 L 90 16 C 90 12.691406 87.308594 10 84 10 Z M 33 24 L 59 24 C 60.65625 24 62 25.34375 62 27 C 62 28.65625 60.65625 30 59 30 L 33 30 C 31.34375 30 30 28.65625 30 27 C 30 25.34375 31.34375 24 33 24 Z M 33 38 L 59 38 C 60.65625 38 62 39.34375 62 41 C 62 42.65625 60.65625 44 59 44 L 33 44 C 31.34375 44 30 42.65625 30 41 C 30 39.34375 31.34375 38 33 38 Z M 33 52 L 55 52 C 56.65625 52 58 53.34375 58 55 C 58 56.65625 56.65625 58 55 58 L 33 58 C 31.34375 58 30 56.65625 30 55 C 30 53.34375 31.34375 52 33 52 Z M 11 70 C 8.242188 70 6 72.242188 6 75 L 6 77 C 6 81.960938 10.039062 86 15 86 L 60.050781 86 C 58.78125 84.324219 58 82.261719 58 80 L 58 75 C 58 72.242188 55.757812 70 53 70 Z M 11 70 "/>
</g>
</svg>
