<?xml version="1.0" encoding="UTF-8"?>
<svg xmlns="http://www.w3.org/2000/svg" xmlns:xlink="http://www.w3.org/1999/xlink" viewBox="0 0 96 96" width="96px" height="96px">
<g id="surface152568847">
<path style=" stroke:none;fill-rule:nonzero;fill:rgb(40.000001%,40.000001%,40.000001%);fill-opacity:1;" d="M 53.046875 59.46875 L 62.96875 69.390625 C 61.453125 72.28125 61.296875 75.15625 62.890625 76.75 L 81 94.859375 C 83.28125 97.140625 88.25 95.890625 92.0625 92.0625 C 95.890625 88.234375 97.140625 83.28125 94.859375 81 L 76.765625 62.890625 C 75.15625 61.296875 72.28125 61.453125 69.390625 62.953125 L 59.46875 53.046875 Z M 34 0 C 15.21875 0 0 15.21875 0 34 C 0 52.78125 15.21875 68 34 68 C 52.78125 68 68 52.78125 68 34 C 68 15.21875 52.78125 0 34 0 Z M 34 60 C 19.640625 60 8 48.359375 8 34 C 8 19.640625 19.640625 8 34 8 C 48.359375 8 60 19.640625 60 34 C 60 48.359375 48.359375 60 34 60 Z M 34 60 "/>
</g>
</svg>
