<?xml version="1.0" encoding="UTF-8"?>
<svg xmlns="http://www.w3.org/2000/svg" xmlns:xlink="http://www.w3.org/1999/xlink" viewBox="0 0 96 96" width="96px" height="96px">
<g id="surface152350586">
<path style=" stroke:none;fill-rule:nonzero;fill:rgb(20.392157%,59.607846%,85.882354%);fill-opacity:1;" d="M 68 8.003906 C 66.292969 8.003906 64.585938 8.210938 62.855469 8.628906 C 61.613281 8.925781 60.691406 9.984375 60.566406 11.257812 L 60.484375 12.101562 C 60.390625 13.0625 59.839844 13.925781 59 14.410156 C 58.160156 14.890625 57.136719 14.945312 56.261719 14.542969 L 55.484375 14.191406 C 54.328125 13.664062 52.945312 13.925781 52.066406 14.855469 C 49.671875 17.375 47.882812 20.457031 46.90625 23.765625 C 46.542969 24.992188 47 26.3125 48.042969 27.054688 L 48.742188 27.554688 C 49.527344 28.121094 50 29.035156 50 30 C 50 30.964844 49.53125 31.878906 48.746094 32.441406 L 48.042969 32.945312 C 47.980469 32.992188 47.9375 33.054688 47.878906 33.105469 L 48.023438 34.054688 C 48.117188 34.667969 48.460938 35.175781 48.996094 35.484375 C 49.304688 35.664062 49.652344 35.757812 49.996094 35.757812 C 50.238281 35.757812 50.484375 35.710938 50.726562 35.613281 L 54.167969 34.269531 C 54.980469 33.953125 55.835938 33.792969 56.707031 33.792969 C 58.796875 33.792969 60.761719 34.714844 62.089844 36.316406 C 64.550781 39.277344 66.480469 42.609375 67.824219 46.230469 C 68.539062 48.160156 68.34375 50.238281 67.414062 51.964844 C 67.609375 51.972656 67.808594 52 68 52 C 69.683594 52 71.417969 51.789062 73.148438 51.371094 C 74.390625 51.074219 75.308594 50.019531 75.433594 48.746094 L 75.515625 47.898438 C 75.609375 46.9375 76.160156 46.074219 77 45.589844 C 77.839844 45.109375 78.863281 45.058594 79.738281 45.457031 L 80.515625 45.8125 C 81.671875 46.34375 83.054688 46.078125 83.933594 45.148438 C 86.328125 42.628906 88.117188 39.546875 89.09375 36.238281 C 89.457031 35.007812 89 33.6875 87.957031 32.945312 L 87.257812 32.445312 C 86.472656 31.878906 86 30.964844 86 30 C 86 29.035156 86.46875 28.121094 87.253906 27.558594 L 87.957031 27.054688 C 89 26.3125 89.457031 24.992188 89.09375 23.765625 C 88.117188 20.457031 86.328125 17.375 83.933594 14.855469 C 83.054688 13.925781 81.671875 13.660156 80.515625 14.191406 L 79.742188 14.542969 C 78.859375 14.941406 77.835938 14.886719 77 14.410156 C 76.160156 13.925781 75.609375 13.066406 75.515625 12.105469 L 75.433594 11.257812 C 75.308594 9.984375 74.386719 8.925781 73.144531 8.628906 C 71.414062 8.210938 69.707031 8.003906 68 8.003906 Z M 68 24 C 71.3125 24 74 26.6875 74 30 C 74 33.3125 71.3125 36 68 36 C 64.6875 36 62 33.3125 62 30 C 62 26.6875 64.6875 24 68 24 Z M 35.804688 27.992188 C 34.1875 27.996094 32.640625 28.160156 30.9375 28.464844 C 29.671875 28.6875 28.6875 29.691406 28.492188 30.964844 L 27.929688 34.65625 C 27.65625 36.464844 26.589844 38.03125 25 38.949219 C 23.414062 39.863281 21.527344 40.015625 19.816406 39.34375 L 16.371094 37.996094 C 15.167969 37.53125 13.796875 37.878906 12.972656 38.871094 C 10.804688 41.480469 9.105469 44.421875 7.921875 47.625 C 7.472656 48.835938 7.851562 50.199219 8.863281 51.007812 L 11.75 53.316406 C 13.179688 54.457031 14 56.164062 14 58 C 14 59.835938 13.179688 61.542969 11.75 62.683594 L 8.863281 64.992188 C 7.851562 65.800781 7.476562 67.164062 7.921875 68.375 C 9.105469 71.578125 10.804688 74.519531 12.972656 77.128906 C 13.796875 78.121094 15.171875 78.476562 16.371094 78.003906 L 19.816406 76.65625 C 21.523438 75.988281 23.414062 76.136719 25 77.050781 C 26.589844 77.96875 27.65625 79.53125 27.933594 81.34375 L 28.492188 85.035156 C 28.6875 86.308594 29.671875 87.3125 30.9375 87.535156 C 32.691406 87.847656 34.347656 88 36 88 C 37.652344 88 39.308594 87.851562 41.0625 87.539062 C 42.328125 87.316406 43.3125 86.308594 43.507812 85.035156 L 44.066406 81.34375 L 44.070312 81.34375 C 44.34375 79.535156 45.410156 77.96875 47 77.050781 C 48.589844 76.136719 50.476562 75.992188 52.183594 76.660156 L 55.628906 78.007812 C 56.832031 78.476562 58.203125 78.121094 59.027344 77.128906 C 61.195312 74.519531 62.894531 71.582031 64.078125 68.378906 C 64.527344 67.164062 64.148438 65.800781 63.136719 64.992188 L 60.25 62.683594 C 58.820312 61.542969 58 59.835938 58 58 C 58 56.164062 58.820312 54.457031 60.253906 53.3125 L 63.136719 51.007812 C 64.148438 50.203125 64.523438 48.832031 64.074219 47.621094 C 62.890625 44.429688 61.191406 41.488281 59.015625 38.875 C 58.191406 37.882812 56.816406 37.53125 55.617188 37.996094 L 52.183594 39.339844 C 50.476562 40.011719 48.589844 39.863281 47 38.949219 C 45.410156 38.03125 44.34375 36.46875 44.066406 34.65625 L 43.507812 30.980469 C 43.3125 29.703125 42.324219 28.695312 41.050781 28.476562 C 39.101562 28.140625 37.421875 27.988281 35.804688 27.992188 Z M 36 48 C 41.523438 48 46 52.476562 46 58 C 46 63.523438 41.523438 68 36 68 C 30.476562 68 26 63.523438 26 58 C 26 52.476562 30.476562 48 36 48 Z M 36 48 "/>
</g>
</svg>
