<?xml version="1.0" encoding="UTF-8"?>
<svg xmlns="http://www.w3.org/2000/svg" xmlns:xlink="http://www.w3.org/1999/xlink" viewBox="0 0 96 96" width="96px" height="96px">
<g id="surface152373821">
<path style=" stroke:none;fill-rule:nonzero;fill:rgb(20.392157%,28.627452%,36.862746%);fill-opacity:1;" d="M 77.3125 37.070312 L 82.195312 32.191406 C 87.261719 27.125 87.261719 18.875 82.195312 13.804688 C 79.738281 11.355469 76.476562 10.007812 73 10.007812 C 69.523438 10.007812 66.257812 11.355469 63.804688 13.808594 L 58.929688 18.6875 Z M 54.6875 22.929688 L 18.546875 59.066406 C 17.777344 59.835938 17.191406 60.785156 16.851562 61.816406 L 10.152344 82.058594 C 9.792969 83.132812 10.074219 84.320312 10.878906 85.121094 C 11.453125 85.695312 12.214844 86 13 86 C 13.316406 86 13.632812 85.949219 13.945312 85.847656 L 34.179688 79.144531 C 35.214844 78.804688 36.164062 78.21875 36.9375 77.449219 L 73.070312 41.3125 Z M 54.6875 22.929688 "/>
</g>
</svg>
