<?xml version="1.0" encoding="UTF-8"?>
<svg xmlns="http://www.w3.org/2000/svg" xmlns:xlink="http://www.w3.org/1999/xlink" viewBox="0 0 96 96" width="96px" height="96px">
<g id="surface152779169">
<path style=" stroke:none;fill-rule:nonzero;fill:rgb(10.196079%,73.725492%,61.176473%);fill-opacity:1;" d="M 51.921875 3.960938 C 50.882812 3.992188 49.894531 4.425781 49.171875 5.171875 L 41.527344 12.816406 C 40.527344 13.574219 39.945312 14.757812 39.945312 16.011719 C 39.949219 17.265625 40.539062 18.445312 41.542969 19.199219 L 49.171875 26.828125 C 50.175781 27.875 51.664062 28.292969 53.066406 27.929688 C 54.46875 27.5625 55.5625 26.46875 55.929688 25.066406 C 56.292969 23.664062 55.875 22.175781 54.828125 21.171875 L 54.417969 20.761719 C 66.8125 23.652344 76 34.703125 76 48 C 76 56.835938 71.890625 64.613281 65.492188 69.761719 C 63.769531 71.148438 63.496094 73.664062 64.882812 75.386719 C 66.269531 77.109375 68.785156 77.382812 70.507812 75.996094 C 78.6875 69.417969 84 59.328125 84 48 C 84 29.945312 70.59375 14.976562 53.230469 12.425781 L 54.828125 10.828125 C 56.011719 9.679688 56.367188 7.917969 55.722656 6.402344 C 55.082031 4.882812 53.570312 3.914062 51.921875 3.960938 Z M 27.957031 19.085938 C 27.054688 19.105469 26.1875 19.429688 25.492188 20.003906 C 17.3125 26.582031 12 36.671875 12 48 C 12 66.054688 25.40625 81.023438 42.769531 83.574219 L 41.171875 85.171875 C 40.125 86.175781 39.707031 87.664062 40.070312 89.066406 C 40.4375 90.46875 41.53125 91.5625 42.933594 91.929688 C 44.335938 92.292969 45.824219 91.875 46.828125 90.828125 L 54.472656 83.183594 C 55.472656 82.425781 56.054688 81.242188 56.054688 79.988281 C 56.050781 78.734375 55.460938 77.554688 54.457031 76.800781 L 46.828125 69.171875 C 46.074219 68.398438 45.039062 67.960938 43.957031 67.960938 C 42.328125 67.964844 40.867188 68.949219 40.253906 70.457031 C 39.644531 71.964844 40.007812 73.695312 41.171875 74.828125 L 41.582031 75.238281 C 29.1875 72.347656 20 61.296875 20 48 C 20 39.164062 24.109375 31.386719 30.507812 26.238281 C 31.867188 25.175781 32.394531 23.367188 31.8125 21.742188 C 31.234375 20.117188 29.679688 19.046875 27.957031 19.085938 Z M 27.957031 19.085938 "/>
</g>
</svg>
